
<svg width="145" height="120" viewBox="0 0 145 120" fill="none" xmlns="http://www.w3.org/2000/svg">
<path d="M125.735 90.512H5.65295V2.22001C5.65295 1.38801 6.32595 0.708008 7.15795 0.708008H124.223C125.055 0.708008 125.735 1.38801 125.735 2.22001V90.512Z" fill="#D5E0D5"/>
<path d="M116.284 10.978H15.1021V80.253H116.284V10.978Z" fill="white"/>
<path d="M130.426 100.774H0.952C0.425 100.774 0 100.349 0 99.811V91.028C0 90.505 0.425 90.076 0.952 90.076H130.426C130.953 90.076 131.385 90.505 131.385 91.028V99.811C131.385 100.35 130.953 100.774 130.426 100.774Z" fill="#E4EBE4"/>
<path d="M74.246 90.059H57.144V95.621H74.246V90.059Z" fill="#9AAA97"/>
<path d="M144.044 119.292H103.008C102.474 119.292 102.045 118.867 102.045 118.329V42.165C102.045 41.638 102.474 41.213 103.008 41.213H144.044C144.571 41.213 145 41.638 145 42.165V118.329C145 118.867 144.571 119.292 144.044 119.292Z" fill="#14A800"/>
<path d="M138.514 53.256H108.53V107.238H138.514V53.256Z" fill="white"/>
<path d="M126.433 114.314C126.433 115.939 125.126 117.252 123.52 117.252C121.916 117.252 120.614 115.939 120.614 114.314C120.614 112.693 121.917 111.379 123.52 111.379C125.126 111.38 126.433 112.693 126.433 114.314Z" fill="#DEBE1A"/>
<path d="M127.115 47.263H119.929C119.411 47.263 118.988 46.842 118.988 46.332C118.988 45.811 119.412 45.394 119.929 45.394H127.115C127.636 45.394 128.053 45.812 128.053 46.332C128.054 46.842 127.637 47.263 127.115 47.263Z" fill="white"/>
</svg>
