
<svg width="85" height="85" viewBox="0 0 85 85" fill="none" xmlns="http://www.w3.org/2000/svg">
<path d="M37.6013 63.3134C47.8854 62.2339 58.7238 57.2013 67.5929 48.3322C80.8529 35.0723 85.7542 17.3486 81.2467 3.75319C67.6659 -0.739712 49.9422 4.14705 36.6677 17.407C27.7986 26.2761 22.7806 37.1145 21.6865 47.3986L37.5867 63.2988L37.6013 63.3134Z" stroke="#001E00" stroke-width="1.5" stroke-linecap="round" stroke-linejoin="round"/>
<path d="M12.6133 25.4007L2.125 35.9036L21.6867 47.413C22.3723 40.9217 24.6333 34.2115 28.4406 27.9097L18.7108 24.1316C16.6103 23.3147 14.2179 23.8107 12.6133 25.4153V25.4007Z" fill="#DEBE1A" stroke="#001E00" stroke-width="1.5" stroke-linecap="round" stroke-linejoin="round"/>
<path d="M57.0897 56.5593C50.788 60.3666 44.0778 62.6277 37.5864 63.3133L49.0959 82.8749L59.5842 72.3866C61.1888 70.782 61.6847 68.4043 60.8679 66.2891L57.0897 56.5593V56.5593Z" fill="#DEBE1A" stroke="#001E00" stroke-width="1.5" stroke-linecap="round" stroke-linejoin="round"/>
<path d="M20.8838 64.1306L8.63037 76.384" stroke="#001E00" stroke-width="1.5" stroke-linecap="round" stroke-linejoin="round"/>
<path d="M12.8174 56.0638L4.66309 64.2181" stroke="#001E00" stroke-width="1.5" stroke-linecap="round" stroke-linejoin="round"/>
<path d="M28.937 72.183L20.7827 80.3373" stroke="#001E00" stroke-width="1.5" stroke-linecap="round" stroke-linejoin="round"/>
<path d="M53.8812 39.682C58.6022 39.682 62.4294 35.8548 62.4294 31.1338C62.4294 26.4127 58.6022 22.5856 53.8812 22.5856C49.1602 22.5856 45.333 26.4127 45.333 31.1338C45.333 35.8548 49.1602 39.682 53.8812 39.682Z" stroke="#001E00" stroke-width="1.5" stroke-linecap="round" stroke-linejoin="round"/>
</svg>
