
<svg width="85" height="85" viewBox="0 0 85 85" fill="none" xmlns="http://www.w3.org/2000/svg">
<path d="M15.3018 54.5L15.3018 33.3021C15.3018 19.8821 25.2162 9 37.4512 9H48.5407C60.7757 9 70.6901 19.8821 70.6901 33.3021V53.131" stroke="#001E00" stroke-width="1.5" stroke-linecap="round" stroke-linejoin="round"/>
<path d="M15.3018 54.2646C15.3018 65.4332 25.2162 74.4885 37.4512 74.4885H43.0009" stroke="#001E00" stroke-width="1.5" stroke-linecap="round" stroke-linejoin="round"/>
<path d="M15.3011 32.1174H11.4681C7.89335 32.1174 5 35.7415 5 40.2149V45.0338C5 49.5071 7.89335 53.1312 11.4681 53.1312H15.3011" stroke="#001E00" stroke-width="1.5" stroke-linecap="round" stroke-linejoin="round"/>
<path d="M70.6992 32.1174H74.5322C78.107 32.1174 81.0003 35.7415 81.0003 40.2149V45.0338C81.0003 49.5071 78.107 53.1312 74.5322 53.1312H70.6992" stroke="#001E00" stroke-width="1.5" stroke-linecap="round" stroke-linejoin="round"/>
<path d="M41.8451 71.7725H47.5034C49.0099 71.7725 50.2294 72.9917 50.2294 74.4935C50.2294 75.9953 49.01 77.2145 47.5034 77.2145H41.8451C40.3386 77.2145 39.1191 75.9953 39.1191 74.4935C39.1191 72.9917 40.3386 71.7725 41.8451 71.7725Z" fill="#14A800" stroke="#001E00" stroke-width="1.5"/>
<path d="M33.5845 25.0561L33.5746 25.0463H54.2494C56.9359 25.0463 59.1182 27.2286 59.1182 29.9151V45.2015C59.1182 47.888 56.9359 50.0703 54.2494 50.0703H52.7978H52.0478V50.8203V56.1428C52.0478 57.147 50.8309 57.6439 50.1308 56.938L50.1306 56.9377L43.544 50.3018L43.324 50.0802H43.0117H31.7741C29.0876 50.0802 26.9053 47.8978 26.9053 45.2113V29.925C26.9053 27.2385 29.0876 25.0561 31.7741 25.0561H33.5845Z" fill="#14A800" stroke="#001E00" stroke-width="1.5"/>
<path d="M52.3727 38.4964C52.8908 38.4964 53.3108 38.0763 53.3108 37.5582C53.3108 37.0401 52.8908 36.6201 52.3727 36.6201C51.8546 36.6201 51.4346 37.0401 51.4346 37.5582C51.4346 38.0763 51.8546 38.4964 52.3727 38.4964Z" fill="white" stroke="white" stroke-width="1.5" stroke-linecap="round" stroke-linejoin="round"/>
<path d="M43.0016 38.4964C43.5197 38.4964 43.9397 38.0763 43.9397 37.5582C43.9397 37.0401 43.5197 36.6201 43.0016 36.6201C42.4835 36.6201 42.0635 37.0401 42.0635 37.5582C42.0635 38.0763 42.4835 38.4964 43.0016 38.4964Z" fill="white" stroke="white" stroke-width="1.5" stroke-linecap="round" stroke-linejoin="round"/>
<path d="M33.6295 38.4964C34.1476 38.4964 34.5676 38.0763 34.5676 37.5582C34.5676 37.0401 34.1476 36.6201 33.6295 36.6201C33.1114 36.6201 32.6914 37.0401 32.6914 37.5582C32.6914 38.0763 33.1114 38.4964 33.6295 38.4964Z" fill="white" stroke="white" stroke-width="1.5" stroke-linecap="round" stroke-linejoin="round"/>
</svg>
