
<svg width="82" height="82" viewBox="0 0 82 82" fill="none" xmlns="http://www.w3.org/2000/svg">
<path d="M48.2417 1H13.8881C10.47 1 7.19184 2.35785 4.77485 4.77485C2.35785 7.19184 1 10.47 1 13.8881V35.7091C1.01176 39.0488 2.34671 42.2477 4.71242 44.6051C7.07813 46.9625 10.2817 48.2861 13.6215 48.2861V57.7967C13.6221 58.4555 13.8179 59.0993 14.1841 59.6469C14.5504 60.1945 15.0708 60.6213 15.6795 60.8733C16.2882 61.1253 16.9579 61.1913 17.6041 61.063C18.2502 60.9346 18.8439 60.6176 19.31 60.1521L31.0871 48.2861H48.2417C51.6598 48.2861 54.938 46.9283 57.3549 44.5113C59.7719 42.0943 61.1298 38.8161 61.1298 35.398V13.8881C61.1298 10.47 59.7719 7.19184 57.3549 4.77485C54.938 2.35785 51.6598 1 48.2417 1Z" fill="#3C8224" stroke="#001E00" stroke-width="1.5" stroke-linecap="round" stroke-linejoin="round"/>
<path d="M74.333 20.8655C75.2198 20.8654 76.0977 21.0421 76.9153 21.3854C77.7329 21.7287 78.4738 22.2317 79.0946 22.8649C79.7154 23.4982 80.2036 24.2489 80.5306 25.0731C80.8577 25.8973 81.017 26.7786 80.9993 27.6651V59.7077C80.9993 61.9825 80.0956 64.1642 78.4871 65.7727C76.8785 67.3813 74.6969 68.285 72.422 68.285H68.3778V77.7955C68.3772 78.4543 68.1814 79.0982 67.8151 79.6458C67.4489 80.1934 66.9285 80.6201 66.3198 80.8722C65.7111 81.1242 65.0414 81.1902 64.3952 81.0618C63.749 80.9335 63.1554 80.6165 62.6893 80.1509L50.9122 68.285H32.1133" stroke="#001E00" stroke-width="1.5" stroke-linecap="round" stroke-linejoin="round"/>
</svg>
