
<svg width="85" height="85" viewBox="0 0 85 85" fill="none" xmlns="http://www.w3.org/2000/svg">
<path d="M82.2463 51.9735L75.2314 82.3749H26.9093L33.9241 51.9735H82.2463Z" fill="#13544E" stroke="#001E00"/>
<path d="M54.5727 70.0402C56.1589 70.0402 57.4447 68.7544 57.4447 67.1682C57.4447 65.582 56.1589 64.2962 54.5727 64.2962C52.9865 64.2962 51.7007 65.582 51.7007 67.1682C51.7007 68.7544 52.9865 70.0402 54.5727 70.0402Z" fill="white" stroke="white" stroke-linecap="round" stroke-linejoin="round"/>
<path d="M33.7295 26.6026C40.4888 26.6026 45.9683 21.1231 45.9683 14.3638C45.9683 7.6045 40.4888 2.125 33.7295 2.125C26.9702 2.125 21.4907 7.6045 21.4907 14.3638C21.4907 21.1231 26.9702 26.6026 33.7295 26.6026Z" stroke="#001E00" stroke-width="1.5" stroke-linecap="round" stroke-linejoin="round"/>
<path d="M2.125 71.4343V67.4064C2.125 50.0671 16.1871 36.005 33.5264 36.005H33.9197C40.188 36.005 46.0274 37.8402 50.9372 41.0102" stroke="#001E00" stroke-width="1.5" stroke-linecap="round" stroke-linejoin="round"/>
</svg>
