
<svg width="85" height="85" viewBox="0 0 85 85" fill="none" xmlns="http://www.w3.org/2000/svg">
<path d="M64.507 43.9359H54.8367C52.9027 43.9359 51.6133 45.1197 51.6133 46.9014V52.9029H67.7305V46.9014C67.7305 45.1197 66.4411 43.9359 64.507 43.9359Z" stroke="#001E00" stroke-width="1.5" stroke-linecap="round" stroke-linejoin="round"/>
<path d="M82.8755 63.6282V58.2011C82.8755 54.3916 79.5231 51.4729 75.1392 51.4729H44.1942C39.8104 51.4729 36.458 54.3916 36.458 58.2011V63.6282H82.8755Z" fill="#BDA1E7"/>
<path d="M82.8755 67.672H36.458V76.1467C36.458 79.9562 39.8104 82.8749 44.1942 82.8749H75.1392C79.2652 82.8749 82.8755 79.7335 82.8755 76.1467V67.672Z" fill="#BDA1E7"/>
<path d="M82.8755 63.6282V58.2011C82.8755 54.3916 79.5231 51.4729 75.1392 51.4729H44.1942C39.8104 51.4729 36.458 54.3916 36.458 58.2011V63.6282" stroke="#001E00" stroke-width="1.5" stroke-linecap="round" stroke-linejoin="round"/>
<path d="M36.458 63.6282H82.8755" stroke="#001E00" stroke-width="1.5" stroke-linecap="round" stroke-linejoin="round"/>
<path d="M36.458 67.672V76.1467C36.458 79.9562 39.8104 82.8749 44.1942 82.8749H75.1392C79.2652 82.8749 82.8755 79.7335 82.8755 76.1467V67.672" stroke="#001E00" stroke-width="1.5" stroke-linecap="round" stroke-linejoin="round"/>
<path d="M82.8755 67.672H36.458" stroke="#001E00" stroke-width="1.5" stroke-linecap="round" stroke-linejoin="round"/>
<path d="M33.7256 26.5997C40.4841 26.5997 45.9629 21.1208 45.9629 14.3623C45.9629 7.60384 40.4841 2.125 33.7256 2.125C26.9671 2.125 21.4883 7.60384 21.4883 14.3623C21.4883 21.1208 26.9671 26.5997 33.7256 26.5997Z" stroke="#001E00" stroke-width="1.5" stroke-linecap="round" stroke-linejoin="round"/>
<path d="M2.125 71.4347V67.4025C2.125 50.0545 16.1792 36.0004 33.5271 36.0004H33.9139C36.8912 36.0004 39.763 36.4106 42.4941 37.1842" stroke="#001E00" stroke-width="1.5" stroke-linecap="round" stroke-linejoin="round"/>
</svg>
