
<svg width="85" height="85" viewBox="0 0 85 85" fill="none" xmlns="http://www.w3.org/2000/svg">
<path d="M69.9439 42.6325C70.6882 41.3583 71.1171 39.8823 71.1171 38.3054C71.1171 33.5243 67.2442 29.6388 62.4504 29.6388C57.6566 29.6388 53.7838 33.5117 53.7838 38.3054C53.7838 39.8823 54.2127 41.3583 54.957 42.6325H42.6445V55.0837C43.843 54.4529 45.218 54.0871 46.6688 54.0871C51.45 54.0871 55.3354 57.96 55.3354 62.7537C55.3354 67.5475 51.4626 71.4204 46.6688 71.4204C45.218 71.4204 43.843 71.0545 42.6445 70.4238V82.875H71.5586C77.8031 82.875 82.8745 77.8037 82.8745 71.5592V42.6451H69.9565L69.9439 42.6325Z" fill="#91E6B3" stroke="#001E00" stroke-width="1.5" stroke-linecap="round" stroke-linejoin="round"/>
<path d="M71.5093 2.125H42.4944V14.9799C41.1445 14.1221 39.555 13.6175 37.8393 13.6175C33.0329 13.6175 29.1475 17.5156 29.1475 22.3093C29.1475 27.1031 33.0329 31.0012 37.8393 31.0012C39.555 31.0012 41.1445 30.4966 42.4944 29.6388V42.4937H54.8573C54.113 41.2195 53.684 39.7309 53.684 38.1414C53.684 33.335 57.5821 29.4495 62.3759 29.4495C67.1697 29.4495 71.0678 33.3476 71.0678 38.1414C71.0678 39.7309 70.6389 41.2069 69.8946 42.4937H82.863V13.4787C82.863 7.20893 77.7791 2.125 71.5093 2.125Z" stroke="#001E00" stroke-width="1.5" stroke-linecap="round" stroke-linejoin="round"/>
<path d="M37.8387 13.6175C39.5543 13.6175 41.1439 14.1221 42.4937 14.9799V2.125H13.4787C7.20893 2.125 2.125 7.20893 2.125 13.4787V42.4937H14.4879C13.7436 43.7678 13.3147 45.2564 13.3147 46.8459C13.3147 51.6523 17.2128 55.5378 22.0066 55.5378C26.8004 55.5378 30.6985 51.6397 30.6985 46.8459C30.6985 45.2564 30.2695 43.7804 29.5252 42.4937H42.4937V29.6388C41.1439 30.4966 39.5543 31.0012 37.8387 31.0012C33.0323 31.0012 29.1468 27.1031 29.1468 22.3093C29.1468 17.5156 33.0323 13.6175 37.8387 13.6175Z" stroke="#001E00" stroke-width="1.5" stroke-linecap="round" stroke-linejoin="round"/>
<path d="M46.5306 53.9862C45.0672 53.9862 43.6921 54.352 42.4937 54.9828V42.4937H29.5252C30.2695 43.7678 30.6985 45.2564 30.6985 46.846C30.6985 51.6524 26.813 55.5378 22.0066 55.5378C17.2002 55.5378 13.3147 51.6397 13.3147 46.846C13.3147 45.2564 13.7436 43.7805 14.4879 42.4937H2.125V71.5087C2.125 77.7785 7.20893 82.8624 13.4787 82.8624H42.4937V70.3733C43.7047 71.0041 45.0798 71.3699 46.5306 71.3699C51.3369 71.3699 55.2224 67.4718 55.2224 62.678C55.2224 57.8843 51.3243 53.9862 46.5306 53.9862Z" stroke="#001E00" stroke-width="1.5" stroke-linecap="round" stroke-linejoin="round"/>
</svg>
