<?xml version="1.0" encoding="UTF-8" standalone="no" ?>
<!DOCTYPE svg PUBLIC "-//W3C//DTD SVG 1.1//EN" "http://www.w3.org/Graphics/SVG/1.1/DTD/svg11.dtd">
<svg xmlns="http://www.w3.org/2000/svg" xmlns:xlink="http://www.w3.org/1999/xlink" version="1.1" width="100" height="100" viewBox="0 0 400 400" xml:space="preserve">
<desc>Created with Fabric.js 3.6.2</desc>
<defs>
</defs>
<g transform="matrix(0.78 0 0 0.78 200 200)"  >
<rect style="stroke: none; stroke-width: 1; stroke-dasharray: none; stroke-linecap: butt; stroke-dashoffset: 0; stroke-linejoin: miter; stroke-miterlimit: 4; fill: none; fill-rule: nonzero; opacity: 1;"  x="-128" y="-128" rx="0" ry="0" width="256" height="256" />
</g>
<g transform="matrix(0.78 0 0 0.78 151.41 248.59)"  >
<path style="stroke: rgb(0,0,0); stroke-width: 16; stroke-dasharray: none; stroke-linecap: round; stroke-dashoffset: 0; stroke-linejoin: round; stroke-miterlimit: 4; fill: none; fill-rule: nonzero; opacity: 1;"  transform=" translate(-65.8, -190.2)" d="M 94.1 184.6 c -11.4 33.9 -56.6 33.9 -56.6 33.9 s 0 -45.2 33.9 -56.6" stroke-linecap="round" />
</g>
<g transform="matrix(0.78 0 0 0.78 218.36 181.64)"  >
<path style="stroke: rgb(0,0,0); stroke-width: 16; stroke-dasharray: none; stroke-linecap: round; stroke-dashoffset: 0; stroke-linejoin: round; stroke-miterlimit: 4; fill: none; fill-rule: nonzero; opacity: 1;"  transform=" translate(-151.5, -104.5)" d="M 195.9 105.4 L 128 173.3 L 82.7 128 l 67.9 -67.9 C 176.3 34.4 202 34.7 213 36.3 a 7.8 7.8 0 0 1 6.7 6.7 C 221.3 54 221.6 79.7 195.9 105.4 Z" stroke-linecap="round" />
</g>
<g transform="matrix(0.78 0 0 0.78 222.11 232.16)"  >
<path style="stroke: rgb(0,0,0); stroke-width: 16; stroke-dasharray: none; stroke-linecap: round; stroke-dashoffset: 0; stroke-linejoin: round; stroke-miterlimit: 4; fill: none; fill-rule: nonzero; opacity: 1;"  transform=" translate(-156.3, -169.17)" d="M 184.6 116.7 v 64.6 a 8 8 0 0 1 -2.4 5.6 l -32.3 32.4 a 8 8 0 0 1 -13.5 -4.1 L 128 173.3" stroke-linecap="round" />
</g>
<g transform="matrix(0.78 0 0 0.78 167.84 177.89)"  >
<path style="stroke: rgb(0,0,0); stroke-width: 16; stroke-dasharray: none; stroke-linecap: round; stroke-dashoffset: 0; stroke-linejoin: round; stroke-miterlimit: 4; fill: none; fill-rule: nonzero; opacity: 1;"  transform=" translate(-86.83, -99.7)" d="M 139.3 71.4 H 74.7 a 8 8 0 0 0 -5.6 2.4 L 36.7 106.1 a 8 8 0 0 0 4.1 13.5 L 82.7 128" stroke-linecap="round" />
</g>
</svg>